<svg xmlns="http://www.w3.org/2000/svg" viewBox="0 0 1080 1920" shape-rendering="crispEdges">
<defs><linearGradient id="sky" x2="0" y2="1"><stop stop-color="#06111f"/><stop offset="1" stop-color="#102949"/></linearGradient><linearGradient id="road" x2="0" y2="1"><stop stop-color="#172b3e"/><stop offset="1" stop-color="#07111d"/></linearGradient></defs>
<rect width="1080" height="1920" fill="url(#sky)"/>
<g fill="#dff6ff" opacity=".85"><rect x="90" y="125" width="5" height="5"/><rect x="215" y="212" width="4" height="4"/><rect x="347" y="82" width="6" height="6"/><rect x="712" y="147" width="5" height="5"/><rect x="892" y="248" width="6" height="6"/><rect x="980" y="106" width="4" height="4"/><rect x="800" y="354" width="4" height="4"/><rect x="148" y="362" width="5" height="5"/></g>
<g><rect x="830" y="270" width="84" height="84" fill="#c9ff45"/><rect x="818" y="282" width="108" height="60" fill="#c9ff45"/><rect x="842" y="258" width="60" height="108" fill="#c9ff45"/></g>
<path d="M0 790 160 650 270 735 420 585 570 735 720 620 850 720 960 610 1080 700V980H0Z" fill="#0b1c31"/>
<path d="M0 850 145 735 260 820 400 690 555 835 690 725 835 835 960 740 1080 820V1030H0Z" fill="#102744"/>
<g fill="#c9ff45" opacity=".78"><rect x="620" y="835" width="7" height="7"/><rect x="648" y="852" width="6" height="6"/><rect x="680" y="828" width="9" height="9"/><rect x="716" y="858" width="6" height="6"/><rect x="752" y="836" width="8" height="8"/><rect x="788" y="862" width="6" height="6"/><rect x="824" y="840" width="8" height="8"/><rect x="866" y="858" width="6" height="6"/><rect x="904" y="830" width="8" height="8"/></g>
<path d="M0 1010 C240 965 405 955 535 990 C680 1028 840 990 1080 910V1130C850 1190 660 1195 500 1150C330 1100 160 1120 0 1170Z" fill="#102d4b"/>
<g fill="#c9ff45" opacity=".45"><rect x="630" y="1010" width="10" height="52"/><rect x="690" y="1000" width="8" height="70"/><rect x="755" y="982" width="10" height="92"/><rect x="820" y="968" width="8" height="110"/><rect x="885" y="948" width="10" height="128"/></g>
<path d="M0 1120 C250 1025 420 1050 555 1140 C700 1235 860 1275 1080 1325V1920H0Z" fill="url(#road)"/>
<path d="M0 1190 C250 1080 410 1095 555 1170 C715 1255 875 1310 1080 1360" fill="none" stroke="#c9ff45" stroke-width="18"/>
<path d="M80 1920 360 1130" stroke="#d7ff4a" stroke-width="20"/><path d="M1010 1920 665 1200" stroke="#d7ff4a" stroke-width="18"/>
<g fill="#eaf3f7" opacity=".72"><rect x="515" y="1250" width="14" height="62"/><rect x="490" y="1380" width="18" height="86"/><rect x="445" y="1545" width="25" height="118"/></g>
<g transform="translate(355 1215)">
<rect x="90" y="85" width="240" height="92" fill="#0a1018"/><rect x="120" y="38" width="175" height="72" fill="#16263a"/><rect x="142" y="52" width="62" height="48" fill="#07101c"/><rect x="215" y="52" width="58" height="48" fill="#07101c"/>
<rect x="68" y="112" width="284" height="62" fill="#c9ff45"/><rect x="86" y="158" width="248" height="48" fill="#101a25"/><rect x="92" y="170" width="48" height="24" fill="#ff665e"/><rect x="280" y="170" width="48" height="24" fill="#ff665e"/>
<rect x="110" y="198" width="54" height="38" fill="#050a10"/><rect x="260" y="198" width="54" height="38" fill="#050a10"/><rect x="178" y="174" width="68" height="22" fill="#dbe5ea"/>
</g>
<rect x="0" y="0" width="1080" height="1920" fill="#02070d" opacity=".16"/>
</svg>